<?xml version="1.0" encoding="UTF-8"?>
<svg id="Calque_1" xmlns="http://www.w3.org/2000/svg" version="1.1" viewBox="0 0 122.5 80.27">
  <!-- Generator: Adobe Illustrator 30.0.0, SVG Export Plug-In . SVG Version: 2.1.1 Build 123)  -->
  <defs>
    <style>
      .st0 {
        fill: #fff;
      }
    </style>
  </defs>
  <path class="st0" d="M86.3,77.43l-3.27.29h-2.51l-2.38-.18c-11.21-1.12-21.54-7.37-27.7-16.75l.23-.13,15.26-2.25c11.15,9.61,28.25,7.21,36.23-5.16,7.51-11.66,3.68-27.08-8.21-34-9.15-5.34-20.77-4.08-28.51,3.11l22.17,16.53-7.87,10.62-3.17-2.35-23.5-17.93h0c-8.69-7.16-21.8-7.4-30.67,0-.16.13-1.05.85-.99.99l22.13,16.48-7.81,10.63L3.13,33.27v-.18c.57-.81.92-1.81,1.39-2.7C13.27,13.91,32.76,6.26,50.49,12.61c1.37.5,2.68,1.13,4.02,1.7,6.74-7,16.08-11.39,25.88-11.66l.22-.09h2.6l4.34.46c14.7,2.24,26.81,13.14,30.58,27.52,5.78,22.08-9.35,44.18-31.83,46.89Z"/>
</svg>